#!OML:ASF H:\GeneralSubjects\Female5\Project 1\Capture day 1\Session 1\Female5.ASF
:FULLY-SPECIFIED
:DEGREES
109
root 7.7761 16.1133 3.39118 -177.777 -40.6291 -170.277
lowerback 6.87355 1.5326 1.66817
upperback -11.3132 1.87091 1.44242
thorax -16.5372 0.508016 0.3926
lowerneck -14.7936 -4.53246 -2.12038
upperneck 31.1423 -8.9573 3.86793
head 13.1956 -4.28531 0.324989
rclavicle 6.72886e-014 4.49253e-014
rhumerus 15.2073 7.65053 -50.3113
rradius 93.2227
rwrist -37.3663
rhand -18.0178 -14.393
rfingers 7.12502
rthumb 8.25317 -44.2118
lclavicle 6.72886e-014 4.49253e-014
lhumerus -50.5439 -5.211 84.766
lradius 51.1699
lwrist -5.62911
lhand -21.3176 31.3525
lfingers 7.12502
lthumb 5.06771 61.2719
rfemur -3.53787 14.6293 33.616
rtibia 0.862782
rfoot -22.1114 -21.8428
rtoes -1.88064
lfemur -7.32199 -16.9468 -19.553
ltibia 9.42814
lfoot -41.8717 13.3953
ltoes -47.3102
110
root 7.80892 16.1173 3.4081 -178.089 -40.3074 -169.884
lowerback 6.91974 2.11243 2.41521
upperback -11.3309 2.78038 1.40359
thorax -16.5474 0.833453 -0.257233
lowerneck -14.7628 -5.35944 -3.81798
upperneck 31.6446 -10.0225 4.49501
head 13.5909 -4.87558 0.665546
rclavicle 1.04064e-013 3.81667e-014
rhumerus 25.1092 13.5709 -47.4836
rradius 71.6061
rwrist -28.0443
rhand -24.8405 -19.1531
rfingers 7.12502
rthumb 1.66557 -49.1264
lclavicle 1.04064e-013 3.81667e-014
lhumerus -49.7668 -5.6627 85.5243
lradius 51.87
lwrist -6.45691
lhand -15.0606 31.2504
lfingers 7.12502
lthumb 11.1063 60.9365
rfemur -3.44445 15.1197 34.0258
rtibia 0.577734
rfoot -22.0557 -21.8687
rtoes -0.987474
lfemur -7.18291 -16.8061 -19.039
ltibia 9.13311
lfoot -42.097 13.8256
ltoes -47.64
111
root 7.84293 16.1195 3.41783 -178.672 -39.8821 -169.28
lowerback 7.17567 2.84922 3.48109
upperback -11.2893 3.96269 1.23805
thorax -16.555 1.24079 -1.29101
lowerneck -14.161 -6.36622 -5.32449
upperneck 31.7059 -11.3257 4.95107
head 13.7003 -5.5844 0.889618
rclavicle -7.49418e-014 -1.98785e-014
rhumerus 35.5052 20.1292 -40.8775
rradius 49.0593
rwrist -22.1847
rhand -27.428 -25.0195
rfingers 7.12502
rthumb -0.833448 -54.9977
lclavicle -7.49418e-014 -1.98785e-014
lhumerus -49.042 -6.55856 86.169
lradius 53.317
lwrist -5.91521
lhand -12.4105 32.7763
lfingers 7.12502
lthumb 13.6614 62.3079
rfemur -3.12501 15.5269 34.6952
rtibia 0.206997
rfoot -21.8304 -21.9106
rtoes -0.689823
lfemur -6.83037 -16.4573 -18.3372
ltibia 8.79636
lfoot -42.1187 14.4636
ltoes -48.1076
112
root 7.88153 16.125 3.4159 -179.216 -39.5146 -168.708
lowerback 7.39879 3.68469 4.60609
upperback -11.162 5.28331 0.918231
thorax -16.3493 1.70817 -2.55325
lowerneck -14.1034 -7.38211 -6.62924
upperneck 31.6409 -12.6435 5.49138
head 13.9023 -6.22498 1.08457
rclavicle -7.27552e-014 -1.11319e-014
rhumerus 46.0927 29.8092 -24.5894
rradius 36.4896
rwrist -27.1129
rhand -19.1717 -22.7845
rfingers 7.12502
rthumb 7.13941 -52.6441
lclavicle -7.27552e-014 -1.11319e-014
lhumerus -48.171 -7.46475 86.4154
lradius 55.2167
lwrist -5.46732
lhand -19.9939 33.0872
lfingers 7.12502
lthumb 6.34571 62.9721
rfemur -2.69083 16.1224 35.4214
rtibia -0.306751
rfoot -21.6665 -22.1672
rtoes -0.215147
lfemur -6.39003 -16.1098 -17.635
ltibia 8.30166
lfoot -41.9152 15.377
ltoes -48.7967
113
root 7.92659 16.1357 3.40414 -179.42 -39.5206 -168.361
lowerback 7.51372 4.39979 5.30144
upperback -11.0081 6.36779 0.604292
thorax -16.0396 2.13273 -3.50493
lowerneck -13.7347 -8.34822 -8.181
upperneck 30.683 -13.884 6.68147
head 13.756 -6.77308 1.60363
rclavicle 2.78299e-014 -2.94201e-014
rhumerus 52.6297 36.6259 -9.57767
rradius 33.0193
rwrist -23.1756
rhand -18.4983 -23.3461
rfingers 7.12502
rthumb 7.78939 -53.1827
lclavicle 2.78299e-014 -2.94201e-014
lhumerus -47.3374 -7.57303 86.0941
lradius 57.9954
lwrist -5.50709
lhand -22.0075 30.5853
lfingers 7.12502
lthumb 4.4015 60.5196
rfemur -2.28858 17.1152 35.9745
rtibia -1.03816
rfoot -22.0081 -22.9777
rtoes 0.588479
lfemur -6.35667 -15.8222 -17.0349
ltibia 7.986
lfoot -41.4699 16.0507
ltoes -49.56
114
root 7.90372 16.1739 3.35529 -180.454 -39.2245 -167.898
lowerback 7.66198 5.10635 6.13362
upperback -10.4492 7.49234 0.421401
thorax -15.2102 2.63179 -4.36007
lowerneck -13.598 -9.22363 -9.54088
upperneck 29.6579 -14.9924 7.85725
head 13.6436 -7.23187 2.08487
rclavicle -2.09718e-014 -3.97569e-015
rhumerus 51.967 39.1477 -7.51446
rradius 31.6468
rwrist -14.1096
rhand -25.775 -27.28
rfingers 7.12502
rthumb 0.76309 -57.2584
lclavicle -2.09718e-014 -3.97569e-015
lhumerus -46.9377 -7.11985 85.4979
lradius 62.1634
lwrist -5.28264
lhand -21.888 31.621
lfingers 7.12502
lthumb 4.51696 61.5529
rfemur -0.734109 17.4315 36.6904
rtibia -2.03743
rfoot -21.8728 -23.3257
rtoes 0.137761
lfemur -4.55024 -16.1777 -16.8854
ltibia 6.81372
lfoot -42.1029 16.4602
ltoes -49.5208
115
root 8.00971 16.1841 3.35304 -180.481 -41.0681 -167.011
lowerback 7.99612 5.16875 6.26626
upperback -10.6225 7.62916 0.309527
thorax -15.5942 2.64503 -4.62961
lowerneck -13.663 -9.97582 -10.5604
upperneck 28.9183 -15.9412 8.73757
head 13.6483 -7.61576 2.40255
rclavicle 3.17062e-014 8.74653e-015
rhumerus 45.6269 37.144 -16.4257
rradius 33.3556
rwrist -21.8302
rhand -33.3598 -26.0132
rfingers 7.12502
rthumb -6.56152 -55.8916
lclavicle 3.17062e-014 8.74653e-015
lhumerus -47.2182 -6.36395 84.543
lradius 66.9104
lwrist -4.1715
lhand -22.2662 30.6361
lfingers 7.12502
lthumb 4.15171 60.5754
rfemur -1.04861 19.0959 37.4542
rtibia -2.75803
rfoot -24.2547 -25.5218
rtoes 2.49998
lfemur -7.0624 -15.1062 -15.3439
ltibia 8.34116
lfoot -39.5087 15.3729
ltoes -49.855
